HIERARCHY
ROOT Hips
{

	OFFSET     0.00     0.00     0.00
	CHANNELS 6 Xposition Yposition Zposition Zrotation Xrotation Yrotation
	JOINT Abdomen
	{

		OFFSET     0.00     0.00     0.00
		CHANNELS 3 Zrotation Xrotation Yrotation
		JOINT Chest
		{

			OFFSET     0.00     6.25    -0.56
			CHANNELS 3 Zrotation Xrotation Yrotation
			JOINT neckDummy
			{

				OFFSET     0.00     8.24    -0.24
				CHANNELS 3 Zrotation Xrotation Yrotation
				JOINT Neck
				{

					OFFSET     0.00     2.70     0.28
					CHANNELS 3 Zrotation Xrotation Yrotation
					JOINT Head
					{

						OFFSET     0.00     2.71     0.33
						CHANNELS 3 Zrotation Xrotation Yrotation
						End Site
						{
							OFFSET     0.00    10.59     0.00
						}
					}

				}

			}

			JOINT LeftCollar
			{

				OFFSET     0.60     8.24    -0.24
				CHANNELS 3 Zrotation Xrotation Yrotation
				JOINT LeftUpArm
				{

					OFFSET     4.53     0.03    -0.05
					CHANNELS 3 Zrotation Xrotation Yrotation
					JOINT LeftLowArm
					{

						OFFSET    13.87     0.14    -0.30
						CHANNELS 3 Zrotation Xrotation Yrotation
						JOINT LeftHand
						{

							OFFSET    10.93    -0.04     0.16
							CHANNELS 3 Zrotation Xrotation Yrotation
							End Site
							{
								OFFSET    10.59     0.00     0.00
							}
						}

					}

				}

			}

			JOINT RightCollar
			{

				OFFSET    -0.60     8.24    -0.24
				CHANNELS 3 Zrotation Xrotation Yrotation
				JOINT RightUpArm
				{

					OFFSET    -4.53     0.03    -0.05
					CHANNELS 3 Zrotation Xrotation Yrotation
					JOINT RightLowArm
					{

						OFFSET   -13.87     0.14    -0.30
						CHANNELS 3 Zrotation Xrotation Yrotation
						JOINT RightHand
						{

							OFFSET   -10.93    -0.04     0.16
							CHANNELS 3 Zrotation Xrotation Yrotation
							End Site
							{
								OFFSET   -10.60     0.00     0.00
							}
						}

					}

				}

			}

		}

	}

	JOINT LeftUpLeg
	{

		OFFSET     3.29    -4.40    -0.40
		CHANNELS 3 Zrotation Xrotation Yrotation
		JOINT LeftLowLeg
		{

			OFFSET    -0.23   -20.19     0.08
			CHANNELS 3 Zrotation Xrotation Yrotation
			JOINT LeftFoot
			{

				OFFSET     0.10   -16.90    -0.20
				CHANNELS 3 Zrotation Xrotation Yrotation
				End Site
				{
					OFFSET     0.00     0.00    10.60
				}
			}

		}

	}

	JOINT RightUpLeg
	{

		OFFSET    -3.29    -4.40    -0.40
		CHANNELS 3 Zrotation Xrotation Yrotation
		JOINT RightLowLeg
		{

			OFFSET     0.23   -20.19     0.08
			CHANNELS 3 Zrotation Xrotation Yrotation
			JOINT RightFoot
			{

				OFFSET    -0.10   -16.90    -0.21
				CHANNELS 3 Zrotation Xrotation Yrotation
				End Site
				{
					OFFSET     0.00     0.00    10.60
				}
			}

		}

	}

}

MOTION
Frames: 13
Frame Time: 0.333333
	-0.10	49.78	0.18	0.00	0.00	-1440.00	0.00	0.00	0.00	0.83	-0.10	-0.09	0.00	0.00	0.00	0.37	-0.11	2.83	0.00	0.00	0.00	0.00	0.00	0.00	-81.75	122.61	53.25	-4.31	-2.44	-11.06	6.07	1.46	3.08	0.00	0.00	0.00	81.92	122.79	-53.49	5.44	-2.42	11.73	-6.87	0.58	-4.33	-7.38	-1.49	59.57	-0.58	-2.99	-0.34	-15.00	48.23	27.05	5.58	1.99	-59.18	-182.26	183.24	177.45	50.96	-12.51	-51.27
	-0.10	50.20	0.18	0.00	0.00	-1440.00	0.00	0.00	0.00	0.83	-0.10	-0.09	0.00	0.00	0.00	0.55	-0.16	4.25	0.00	0.00	0.00	0.00	0.00	0.00	-84.09	125.50	51.70	-1.63	-3.01	-12.12	9.58	1.81	0.20	0.00	0.00	0.00	84.22	125.68	-51.88	2.78	-3.03	12.81	-10.23	1.25	-1.33	1.40	-0.43	59.97	-0.58	-2.99	-0.34	-26.37	55.88	36.14	-22.39	-3.21	-60.06	-182.22	182.74	177.46	61.61	-22.07	-27.55
	-0.10	49.61	0.18	0.00	0.00	-1440.00	0.00	0.00	0.00	0.83	-0.10	-0.09	0.00	0.00	0.00	0.74	-0.20	5.66	0.00	0.00	0.00	0.00	0.00	0.00	-86.29	128.24	50.11	0.89	-3.60	-13.09	13.15	1.99	-2.73	0.00	0.00	0.00	86.42	128.41	-50.28	0.28	-3.64	13.81	-13.67	1.73	1.71	10.54	0.63	60.17	-0.58	-2.99	-0.34	-42.32	61.98	49.88	-12.18	-0.58	-59.52	-182.26	183.24	177.45	51.79	-17.20	-31.09
	-0.10	46.61	0.18	0.00	0.00	-1440.00	0.00	0.00	0.00	0.83	-0.10	-0.09	0.00	0.00	0.00	0.93	-0.24	7.08	0.00	0.00	0.00	0.00	0.00	0.00	-88.54	131.04	48.35	3.41	-4.24	-14.03	16.71	1.96	-5.66	0.00	0.00	0.00	88.64	131.20	-48.49	-2.23	-4.31	14.78	-17.12	2.03	4.76	20.83	-1.59	60.61	-0.57	-2.49	-0.33	-53.66	53.46	60.31	-3.01	-1.27	-59.27	-182.26	183.24	177.45	51.20	-14.90	-41.17
	-0.10	49.30	0.18	0.00	0.00	-1440.00	0.00	0.00	0.00	0.83	-0.10	-0.09	0.00	0.00	0.00	1.11	-0.27	8.49	0.00	0.00	0.00	0.00	0.00	0.00	-90.78	133.73	46.64	6.02	-4.93	-14.99	20.33	1.76	-8.62	0.00	0.00	0.00	90.86	133.87	-46.75	-4.81	-5.04	15.75	-20.61	2.16	7.88	18.82	-10.44	63.10	-1.85	28.74	1.45	1.21	-4.53	18.22	-10.11	-8.83	-60.37	-178.07	151.99	175.53	57.93	-16.90	-86.64
	-0.10	45.73	0.18	0.00	0.00	-1440.00	0.00	0.00	0.00	0.83	-0.10	-0.09	0.00	0.00	0.00	1.21	-0.29	9.20	0.00	0.00	0.00	0.00	0.00	0.00	-91.86	135.04	45.75	7.26	-5.28	-15.43	22.04	1.63	-10.03	0.00	0.00	0.00	91.98	135.18	-45.86	-6.07	-5.41	16.22	-22.31	2.16	9.38	17.94	-14.92	64.22	-3.26	44.33	3.04	5.27	-18.77	19.92	-13.75	-12.57	-61.33	-174.82	136.43	173.12	60.22	-19.59	-109.60
	-0.10	38.74	0.18	0.00	0.00	-1440.00	0.00	0.00	0.00	0.83	-0.10	-0.09	0.00	0.00	0.00	1.30	-0.31	9.91	0.00	0.00	0.00	0.00	0.00	0.00	-92.96	136.35	44.85	8.51	-5.64	-15.87	23.74	1.44	-11.44	0.00	0.00	0.00	93.11	136.47	-44.96	-7.32	-5.79	16.67	-24.01	2.11	10.88	17.15	-19.41	65.27	-5.94	59.86	5.89	10.43	-32.88	22.99	-17.53	-16.25	-62.55	-168.86	121.12	167.95	61.22	-22.95	-132.85
	-0.10	38.74	0.18	0.00	0.00	-1440.00	0.00	0.00	0.00	0.83	-0.10	-0.09	0.00	0.00	0.00	1.30	-0.31	9.91	0.00	0.00	0.00	0.00	0.00	0.00	-92.96	136.35	44.85	8.51	-5.64	-15.87	23.74	1.44	-11.44	0.00	0.00	0.00	93.11	136.47	-44.96	-7.32	-5.79	16.67	-24.01	2.11	10.88	17.15	-19.41	65.27	-5.94	59.86	5.89	10.43	-32.88	22.99	-17.53	-16.25	-62.55	-168.86	121.12	167.95	61.22	-22.95	-132.85
	13.67	47.17	1.14	0.00	0.00	-1440.00	0.00	0.00	0.00	0.83	-0.10	-0.09	0.00	0.00	0.00	0.65	-0.18	4.95	0.00	0.00	0.00	0.00	0.00	0.00	-92.96	136.35	44.85	8.51	-5.64	-15.87	23.79	2.31	-11.54	0.00	0.00	0.00	93.11	136.47	-44.96	-7.32	-5.79	16.67	-24.01	2.11	10.88	2.82	-11.08	61.15	-1.85	28.50	1.44	3.96	-19.21	22.30	-3.99	-7.55	-59.72	-178.06	151.98	175.53	61.87	-22.18	-116.97
	27.44	50.54	2.11	0.00	0.00	-1440.00	0.00	0.00	0.00	0.83	-0.10	-0.09	0.00	0.00	0.00	0.00	0.00	0.00	0.00	0.00	0.00	0.00	0.00	0.00	-92.96	136.35	44.85	8.51	-5.64	-15.87	23.85	3.18	-11.67	0.00	0.00	0.00	93.11	136.47	-44.96	-7.32	-5.79	16.67	-24.01	2.11	10.88	-10.60	-2.04	59.22	-0.58	-2.99	-0.34	-1.96	-5.62	23.17	9.00	1.47	-59.07	-182.26	183.24	177.45	62.22	-21.30	-101.19
	27.44	48.31	2.11	-2.50	0.00	-1440.00	0.49	0.01	0.01	0.83	-0.10	-0.09	0.00	0.00	0.00	0.00	0.00	0.00	0.00	0.00	0.00	0.00	0.00	0.00	-85.21	126.87	50.93	-0.36	-3.30	-12.60	11.34	2.81	-1.28	0.00	0.00	0.00	85.34	127.04	-51.11	1.53	-3.33	13.31	-11.94	1.51	0.19	5.64	-8.81	60.42	-1.79	28.49	1.41	-0.16	-19.54	19.18	-23.97	-13.08	-61.83	-177.29	150.66	175.61	62.00	-21.63	-97.80
	27.44	37.62	2.11	-5.00	0.00	-1440.00	0.99	0.01	0.03	0.83	-0.10	-0.09	0.00	0.00	0.00	0.00	0.00	0.00	0.00	0.00	0.00	0.00	0.00	0.00	-77.16	116.93	56.04	-9.40	-1.48	-9.00	-0.90	0.25	8.79	0.00	0.00	0.00	77.55	117.13	-56.46	10.46	-1.42	9.64	-0.28	-1.28	-10.14	22.49	-15.02	63.54	-5.75	59.86	5.76	0.76	-33.53	15.19	-38.37	-11.10	-63.76	-182.26	183.24	177.45	61.61	-22.07	-27.55
	27.44	45.51	2.11	-2.50	0.00	-1440.00	0.49	0.01	0.01	0.83	-0.10	-0.09	0.00	0.00	0.00	0.18	-0.05	1.41	0.00	0.00	0.00	0.00	0.00	0.00	-79.55	119.75	54.74	-6.86	-1.94	-10.04	2.53	0.92	6.00	0.00	0.00	0.00	79.78	119.95	-55.04	7.97	-1.89	10.69	-3.48	-0.28	-7.31	7.30	-6.46	60.51	-1.77	28.49	1.39	-4.49	7.69	17.85	-16.04	-6.99	-60.43	-182.26	183.24	177.45	55.77	-17.71	-51.76
